<svg width="324" height="411" viewBox="0 0 324 411" fill="none" xmlns="http://www.w3.org/2000/svg">
<g clip-path="url(#clip0_120_10)">
<g filter="url(#filter0_b_120_10)">
<path fill-rule="evenodd" clip-rule="evenodd" d="M0.04243 238.366L5.06158e-05 238.366L-3.35172e-06 1473L324.23 1473L324.23 248.02C324.262 246.253 324.278 244.475 324.278 242.688C324.278 122.355 226.252 9.8898e-06 162.139 7.08733e-06C98.7934 4.31839e-06 2.34213 119.444 0.04243 238.366Z" fill="#23204F"/>
</g>
<path opacity="0.2" d="M-1 292.261L5.66667 292.261C8.61219 292.261 11 294.549 11 297.372L11 333.15C11 335.973 8.61218 338.261 5.66667 338.261L-1 338.261L-1 292.261Z" fill="#BDBDC2"/>
<path opacity="0.2" d="M317.23 292L323.639 292L323.639 338.142L317.23 338.142C314.399 338.142 312.103 335.847 312.103 333.015L312.103 297.127C312.103 294.295 314.399 292 317.23 292Z" fill="#BDBDC2"/>
<path d="M77.7419 146.613C56.0738 166.723 39.7579 194.462 31.7707 226.41C31.4137 227.836 32.008 229.341 33.2291 230.145L48.1037 239.937C50.0078 241.189 52.5831 240.252 53.2253 238.051C59.8719 215.296 73.1804 195.504 90.8148 181.018L77.7419 146.613ZM246.536 146.613L233.463 181.018C251.097 195.504 264.406 215.296 271.053 238.051C271.695 240.252 274.27 241.189 276.174 239.937L291.049 230.145C292.27 229.341 292.864 227.836 292.507 226.41C284.52 194.462 268.204 166.723 246.536 146.613ZM100.833 174.431C117.137 163.722 136.307 157.142 156.92 156.127L156.92 113C131.251 114.212 107.428 123.719 87.3356 139.255L100.833 174.431ZM238.102 139.255L224.605 174.431C208.301 163.722 189.131 157.142 168.517 156.127L168.517 113C194.187 114.212 218.009 123.719 238.102 139.255Z" fill="#484468"/>
</g>
<defs>
<filter id="filter0_b_120_10" x="-30" y="-30" width="384.278" height="1533" filterUnits="userSpaceOnUse" color-interpolation-filters="sRGB">
<feFlood flood-opacity="0" result="BackgroundImageFix"/>
<feGaussianBlur in="BackgroundImage" stdDeviation="15"/>
<feComposite in2="SourceAlpha" operator="in" result="effect1_backgroundBlur_120_10"/>
<feBlend mode="normal" in="SourceGraphic" in2="effect1_backgroundBlur_120_10" result="shape"/>
</filter>
<clipPath id="clip0_120_10">
<rect width="326" height="703" fill="white"/>
</clipPath>
</defs>
</svg>
